<?xml version="1.0" encoding="utf-8"?>
<!-- Generator: Adobe Illustrator 26.1.0, SVG Export Plug-In . SVG Version: 6.00 Build 0)  -->
<svg version="1.1" id="Calque_1" xmlns="http://www.w3.org/2000/svg" xmlns:xlink="http://www.w3.org/1999/xlink" x="0px" y="0px"
	 viewBox="0 0 2500 503" style="enable-background:new 0 0 2500 503;" xml:space="preserve">
<style type="text/css">
	.st0{fill:url(#SVGID_1_);}
	.st1{fill:url(#SVGID_00000002382225554797136720000003006040717007134086_);}
	.st2{fill:url(#SVGID_00000069387910367374850460000010280219191925377926_);stroke:#FFFFFF;}
</style>
<g>
	<linearGradient id="SVGID_1_" gradientUnits="userSpaceOnUse" x1="693.0854" y1="276.6147" x2="2193.0854" y2="276.6147">
		<stop  offset="0" style="stop-color:#9013FE"/>
		<stop  offset="1" style="stop-color:#6610F2"/>
	</linearGradient>
	<path class="st0" d="M693.1,126.1c1.2-0.2,2.2-0.6,3.2-0.6c41.5,0.2,83.1,0.1,124.6,0.7c14.2,0.2,27.2,5.2,38.8,13.5
		c26.5,18.9,29,72.8-7.4,92.2c-1.9,1-3.7,2-6.2,3.3c6.9,3.2,13.7,5.3,19.4,9.1c21.9,14.6,30.8,47.1,21,75.7
		c-8.6,25-28.9,35.3-52.5,40.8c-7.8,1.8-15.9,2.7-23.9,2.8c-38.8,0.3-77.7,0.1-117.1,0.1C693.1,284.6,693.1,205.5,693.1,126.1
		L693.1,126.1z M734.6,328.9c28.9,0,56.9,0.7,84.9-0.2c17.6-0.6,30.3-19.4,29.3-37.8c-1-18.1-12.2-33.5-29.4-34.3
		c-27.7-1.3-55.6-0.9-83.4-1.2c-0.4,0-0.8,0.6-1.4,1L734.6,328.9L734.6,328.9z M734.7,224.5c25.8,0,50.7,0.9,75.5-0.3
		c18.2-0.9,28.5-15.5,27.9-35.5c-0.6-17.7-11-28.3-29.8-28.8c-23.5-0.6-47.1-0.3-70.7-0.4c-1,0-1.9,0.5-2.9,0.8V224.5z
		 M2021.8,191.8h34.6v18.6c3.9-3,8.5-6.3,12.9-10c26.5-22.8,89.4-20,111,25.9c18.5,39.5,17.7,79.1-7.3,115.9
		c-13.9,20.3-35.3,27.6-59.6,26.3c-21.1-1.1-39.7-7.8-54.3-27.3v86.5h-37.3C2021.8,349,2021.8,270.6,2021.8,191.8L2021.8,191.8z
		 M2056.9,278.7c1.6,8.6,2.4,17.5,4.8,25.9c5.4,18.7,21.8,32.6,38.7,33.8c22.7,1.6,39-6.8,47.2-26.9c10.4-25.6,10.1-51.4-5.2-75.3
		c-18-28.2-61.1-25.8-76.3,3.7C2060,252,2056.9,264.9,2056.9,278.7L2056.9,278.7z M1997.2,339.1c0,7.1,0.2,14.3-0.2,21.4
		c-0.1,1.8-2.3,4.7-3.8,4.9c-10.8,0.9-21.8,2.5-32.4,1.4c-9.4-1-14.6-8.9-17.5-18.2c-22.3,18.2-47.9,22.1-75.1,18.7
		c-22.8-2.8-41.6-21.5-43.2-42.3c-2.2-28.6,8.7-47.2,34.4-54c18-4.8,36.8-6.7,55.2-9.9c4.5-0.8,9-1.4,13.4-2.6
		c8.4-2.3,14.4-6.9,15-16.5c0.6-9.9-3.2-17.5-12.5-21.3c-15.8-6.4-31.9-6.2-47.5,1.1c-7.1,3.3-11.3,10-15,21.4h-36.5
		c0-13.9,4.9-25.6,14.1-35.4c12.2-13,28.1-18.1,45.3-19.9c17.9-1.9,35.8-1.8,53.2,4.1c23.4,7.9,34.7,23.4,34.6,48.1
		c0,26.3,0,52.5,0,78.8C1978.7,337.6,1978.7,337.6,1997.2,339.1L1997.2,339.1z M1940.8,279.8c-11.5,2-22,3.5-32.4,5.7
		c-10.9,2.3-22.1,4.3-32.5,8.1c-10.2,3.7-13.7,13.3-13.3,23.5c0.3,9.8,7,15.3,15.6,18.3c14.8,5.2,29.6,4.5,43.7-2.1
		c10.1-4.7,17.8-12.5,18.7-24.3C1941.4,299.3,1940.8,289.3,1940.8,279.8z M1001.8,186.9c57.2-0.7,90.8,41.3,87.3,98.4
		c-1.2,19.9-6.6,38.4-19.6,54.1c-14.1,16.9-32.2,25.8-53.9,28.2c-18.1,2-35.8,0.8-52.6-6.8c-25-11.4-39.3-31.2-45.3-57.6
		c-4.1-18.1-3.9-36.1,0.7-54.1C928.5,209.6,958.9,187,1001.8,186.9L1001.8,186.9z M952,278c1.5,8.4,2.3,17,4.6,25.1
		c6,20.7,22.4,34.4,41,35.3c23.1,1.1,39.3-8.6,47.9-30.1c8.4-21,8.4-42.5-0.8-63.3c-13.6-30.8-50.7-38.6-74.6-15.8
		C956.5,242.3,953,259.6,952,278L952,278z M1200.4,186.9c51.6-0.1,86.7,34.7,87.4,86.4c0.3,21.8-3.3,42.7-16.1,61
		c-18.4,26.2-44.9,35.4-75.4,34c-11.2-0.5-22.9-3-33.4-7.1c-24.6-9.7-39.3-28.7-45.8-54.1c-5.7-22.4-5.1-44.6,2.2-66.4
		C1130.4,207.1,1161.1,186.9,1200.4,186.9L1200.4,186.9z M1249.9,273.4c-0.8-4.6-1.7-13.5-4.1-21.8c-6.3-21.3-22.9-34.3-43.8-35.2
		c-19.7-0.9-37.5,10.8-45.1,31.1c-9,24-8.3,47.9,5.2,70.2c14.1,23.3,46.2,28.4,67.2,11C1245.3,315.5,1249.2,297.2,1249.9,273.4
		L1249.9,273.4z M1569,239.6c-11.8,0-23.3,0.1-34.7-0.1c-1.4,0-3.6-1.4-4.1-2.7c-6.4-17.9-21.6-20-37.3-20.1
		c-6.5,0-13.4,1.5-19.4,4.1c-12.9,5.4-14.3,20-2.2,26.9c8.4,4.8,18.2,7.4,27.6,10.1c13.4,3.8,27.1,6,40.4,10
		c33.9,10.3,47.2,44.3,28.2,72.3c-9.1,13.4-22.7,20.7-38.4,24.5c-23.1,5.6-46.1,6-68.7-2.2c-24.1-8.7-36.9-26.2-38.8-52.7h36.8
		c10.5,27.3,40.1,38,67.8,24c6.4-3.2,10.7-7.8,11.1-15.4c0.5-8.1-2.7-15-9.9-17.7c-12.9-4.8-26.4-8.1-39.7-12
		c-11-3.2-22.3-5.6-32.9-9.8c-20.5-8.1-29.4-22.1-29.2-43.3c0.1-18.5,10.9-34.4,30.2-41.4c26.5-9.6,53.4-10.8,80-0.4
		c18,7,28.7,20.9,33.1,39.6C1569.4,235.1,1569,237,1569,239.6z M1369,191.4h34.1v27.9h-33.4c-0.2,3.3-0.5,5.7-0.5,8
		c0,28.1,0,56.3,0,84.4c0,3.7,0.3,7.5,0.7,11.2c0.7,7.4,4.9,11.9,12.4,12.3c6.9,0.4,13.8,0.1,21,0.1v27.9
		c-15.6,3.9-31.4,3.7-46.7,0.2c-17.8-4-25.1-16.3-25.2-39.5c-0.2-31.6-0.1-63.3-0.1-94.9v-9.3h-28.3v-28.2h27.9v-51.6h38.2
		C1369,156.8,1369,173.5,1369,191.4L1369,191.4z M1687.9,364.2c-14.7,0-28.6,0.5-42.4-0.1c-13.4-0.6-23.8-9.5-26.7-22.8
		c-1.7-7.6-2.6-15.3-2.6-23.1c-0.3-29.8-0.1-59.5-0.1-89.3v-9.4h-28.2v-27.8h27.8v-51.9h38.3v51h33.9v28h-32.6
		c-0.4,2.5-0.9,4.3-0.9,6c0,30.3-0.1,60.6,0.1,90.9c0.1,16,4.3,19.9,20.2,19.8c4.2,0,8.5,0,13.3,0L1687.9,364.2z M1751.6,191.9v29.3
		c14.7-25,35.1-38,65.1-33.5v36.2c-14.3-2.1-28-2.5-40.2,6.2c-16,11.5-21.6,28.3-22,46.8c-0.6,28.6-0.2,57.3-0.2,86.6h-37.5V191.9
		C1728.2,191.9,1739.3,191.9,1751.6,191.9z"/>
</g>
<linearGradient id="SVGID_00000180336751746775534280000016079611208012400537_" gradientUnits="userSpaceOnUse" x1="103.984" y1="419.8388" x2="551.3849" y2="64.6918" gradientTransform="matrix(1 0 0 -1 0 504)">
	<stop  offset="0" style="stop-color:#9013FE"/>
	<stop  offset="1" style="stop-color:#6610F2"/>
</linearGradient>
<path style="fill:url(#SVGID_00000180336751746775534280000016079611208012400537_);" d="M108.9,95.8c-1-27.7,20.6-53.3,49.9-53.3
	h299.4c29.2,0,50.8,25.6,49.9,53.3c-0.9,26.6,0.3,61.2,9,89.3c8.7,28.2,23.4,46.1,47.5,48.4v26c-24.1,2.3-38.8,20.1-47.5,48.4
	c-8.7,28.1-9.9,62.7-9,89.3c1,27.7-20.6,53.3-49.9,53.3H158.8c-29.2,0-50.8-25.6-49.9-53.3c0.9-26.6-0.3-61.2-9-89.3
	c-8.7-28.2-23.4-46.1-47.5-48.4v-26c24.1-2.3,38.8-20.1,47.5-48.4C108.6,157,109.8,122.4,108.9,95.8z"/>
<linearGradient id="SVGID_00000129198514258783906200000014844127038779771550_" gradientUnits="userSpaceOnUse" x1="241.5782" y1="349.2154" x2="341.5842" y2="180.0834" gradientTransform="matrix(1 0 0 -1 0 504)">
	<stop  offset="0" style="stop-color:#FFFFFF"/>
	<stop  offset="1" style="stop-color:#F1E5FC"/>
</linearGradient>
<path style="fill:url(#SVGID_00000129198514258783906200000014844127038779771550_);stroke:#FFFFFF;" d="M319.5,354.9
	c47.3,0,75.8-23.2,75.8-61.4c0-28.9-20.3-49.8-50.5-53.1v-1.2c22.2-3.6,39.6-24.2,39.6-47.2c0-32.8-25.9-54.1-65.3-54.1h-88.7v217
	H319.5z M264.8,165.4h45.9c25,0,39.1,11.1,39.1,31.3c0,21.5-16.5,33.5-46.4,33.5h-38.7C264.8,230.3,264.8,165.4,264.8,165.4z
	 M264.8,327.4V256h45.6c32.7,0,49.6,12,49.6,35.5c0,23.5-16.5,35.9-47.6,35.9H264.8z"/>
</svg>
